<?xml version="1.0" standalone="no"?>
<!DOCTYPE svg PUBLIC "-//W3C//DTD SVG 20010904//EN"
 "http://www.w3.org/TR/2001/REC-SVG-20010904/DTD/svg10.dtd">
<svg version="1.0" xmlns="http://www.w3.org/2000/svg"
 width="500.000000pt" height="500.000000pt" viewBox="0 0 500.000000 500.000000"
 preserveAspectRatio="xMidYMid meet">
<metadata>
Created by potrace 1.14, written by Peter Selinger 2001-2017
</metadata>
<g transform="translate(0.000000,500.000000) scale(0.100000,-0.100000)"
fill="#000000" stroke="none">
<path d="M1348 3099 c-127 -317 -135 -339 -114 -339 19 0 28 15 61 98 21 53
42 103 48 110 7 8 49 12 147 12 l138 0 44 -110 c38 -97 46 -110 67 -110 17 0
22 4 18 18 -8 29 -259 647 -266 654 -3 3 -67 -146 -143 -333z m206 72 c31 -79
55 -145 53 -148 -2 -2 -58 -2 -125 -1 l-120 3 61 153 c33 84 64 149 67 145 4
-5 33 -73 64 -152z"/>
<path d="M3060 3407 c-94 -26 -173 -97 -217 -193 -18 -41 -24 -70 -24 -126 0
-120 44 -208 137 -274 63 -45 106 -58 194 -58 92 0 167 31 232 96 70 70 93
126 93 233 0 84 -2 94 -34 153 -75 138 -237 210 -381 169z m190 -54 c60 -22
133 -92 160 -154 44 -105 19 -238 -61 -318 -111 -112 -309 -108 -410 7 -122
138 -92 349 63 445 74 46 155 53 248 20z"/>
<path d="M3850 3092 c0 -324 0 -332 20 -332 19 0 20 8 22 272 l3 273 245 -277
c135 -152 248 -277 253 -277 4 -1 7 148 7 329 l0 330 -25 0 -25 0 -2 -272 -3
-272 -224 254 c-123 140 -234 266 -247 280 l-24 25 0 -333z"/>
<path d="M810 3105 c0 -236 -3 -313 -14 -338 -17 -41 -66 -83 -106 -92 -21 -5
-30 -12 -30 -27 0 -18 4 -20 36 -15 56 9 109 49 135 104 23 47 24 55 27 361
l3 312 -25 0 -26 0 0 -305z"/>
<path d="M2190 3391 c-51 -26 -80 -74 -80 -130 0 -69 26 -103 107 -141 200
-93 218 -109 217 -189 -1 -122 -135 -174 -278 -108 -32 15 -62 24 -67 21 -22
-13 -4 -33 54 -60 118 -53 251 -33 308 48 17 23 24 50 27 95 4 56 1 68 -22
103 -28 42 -54 58 -178 110 -98 40 -132 77 -125 132 3 22 11 46 18 54 39 47
142 61 228 30 36 -13 46 -14 53 -4 13 21 10 24 -43 41 -70 23 -175 22 -219 -2z"/>
<path d="M2370 2135 l0 -325 200 0 c193 0 200 1 200 20 0 19 -7 20 -175 20
l-175 0 0 305 0 305 -25 0 -25 0 0 -325z"/>
<path d="M3130 2135 l0 -325 205 0 c198 0 205 1 205 20 0 19 -7 20 -185 20
l-185 0 0 135 0 135 160 0 c153 0 160 1 160 20 0 19 -7 20 -160 20 l-160 0 0
130 0 130 180 0 c173 0 180 1 180 20 0 19 -7 20 -200 20 l-200 0 0 -325z"/>
<path d="M3920 2135 l0 -325 205 0 c198 0 205 1 205 20 0 19 -7 20 -185 20
l-185 0 0 135 0 135 160 0 c153 0 160 1 160 20 0 19 -7 20 -160 20 l-160 0 0
130 0 130 180 0 c173 0 180 1 180 20 0 19 -7 20 -200 20 l-200 0 0 -325z"/>
<path d="M950 2020 c0 -7 189 -10 546 -10 361 0 543 3 539 10 -4 6 -197 10
-546 10 -353 0 -539 -3 -539 -10z"/>
</g>
</svg>
